<mxfile host="app.diagrams.net" modified="2024-01-29T14:32:20.355Z" agent="Mozilla/5.0 (X11; Linux x86_64; rv:121.0) Gecko/20100101 Firefox/121.0" etag="VmYEBkbiY2DPjthytLFe" version="23.0.2" type="device">
  <diagram name="Page-1" id="Lqo6RBezJLHvupXPatZ3">
    <mxGraphModel dx="869" dy="487" grid="1" gridSize="10" guides="1" tooltips="1" connect="1" arrows="1" fold="1" page="1" pageScale="1" pageWidth="850" pageHeight="1100" math="0" shadow="0">
      <root>
        <mxCell id="0" />
        <mxCell id="1" parent="0" />
        <mxCell id="kAC32boEKr8LLjx1eOd2-146" value="" style="rounded=0;whiteSpace=wrap;html=1;" vertex="1" parent="1">
          <mxGeometry x="160" y="640" width="160" height="160" as="geometry" />
        </mxCell>
        <mxCell id="kAC32boEKr8LLjx1eOd2-147" value="" style="rounded=0;whiteSpace=wrap;html=1;" vertex="1" parent="1">
          <mxGeometry x="160" y="640" width="40" height="40" as="geometry" />
        </mxCell>
        <mxCell id="kAC32boEKr8LLjx1eOd2-148" value="" style="rounded=0;whiteSpace=wrap;html=1;" vertex="1" parent="1">
          <mxGeometry x="200" y="640" width="40" height="40" as="geometry" />
        </mxCell>
        <mxCell id="kAC32boEKr8LLjx1eOd2-149" value="" style="rounded=0;whiteSpace=wrap;html=1;" vertex="1" parent="1">
          <mxGeometry x="240" y="640" width="40" height="40" as="geometry" />
        </mxCell>
        <mxCell id="kAC32boEKr8LLjx1eOd2-150" value="" style="rounded=0;whiteSpace=wrap;html=1;" vertex="1" parent="1">
          <mxGeometry x="280" y="640" width="40" height="40" as="geometry" />
        </mxCell>
        <mxCell id="kAC32boEKr8LLjx1eOd2-151" value="" style="rounded=0;whiteSpace=wrap;html=1;" vertex="1" parent="1">
          <mxGeometry x="160" y="680" width="40" height="40" as="geometry" />
        </mxCell>
        <mxCell id="kAC32boEKr8LLjx1eOd2-152" value="" style="rounded=0;whiteSpace=wrap;html=1;" vertex="1" parent="1">
          <mxGeometry x="200" y="680" width="40" height="40" as="geometry" />
        </mxCell>
        <mxCell id="kAC32boEKr8LLjx1eOd2-153" value="" style="rounded=0;whiteSpace=wrap;html=1;" vertex="1" parent="1">
          <mxGeometry x="240" y="680" width="40" height="40" as="geometry" />
        </mxCell>
        <mxCell id="kAC32boEKr8LLjx1eOd2-154" value="" style="rounded=0;whiteSpace=wrap;html=1;" vertex="1" parent="1">
          <mxGeometry x="280" y="680" width="40" height="40" as="geometry" />
        </mxCell>
        <mxCell id="kAC32boEKr8LLjx1eOd2-155" value="" style="rounded=0;whiteSpace=wrap;html=1;" vertex="1" parent="1">
          <mxGeometry x="160" y="720" width="40" height="40" as="geometry" />
        </mxCell>
        <mxCell id="kAC32boEKr8LLjx1eOd2-156" value="" style="rounded=0;whiteSpace=wrap;html=1;" vertex="1" parent="1">
          <mxGeometry x="200" y="720" width="40" height="40" as="geometry" />
        </mxCell>
        <mxCell id="kAC32boEKr8LLjx1eOd2-157" value="" style="rounded=0;whiteSpace=wrap;html=1;" vertex="1" parent="1">
          <mxGeometry x="240" y="720" width="40" height="40" as="geometry" />
        </mxCell>
        <mxCell id="kAC32boEKr8LLjx1eOd2-158" value="" style="rounded=0;whiteSpace=wrap;html=1;" vertex="1" parent="1">
          <mxGeometry x="280" y="720" width="40" height="40" as="geometry" />
        </mxCell>
        <mxCell id="kAC32boEKr8LLjx1eOd2-159" value="" style="rounded=0;whiteSpace=wrap;html=1;" vertex="1" parent="1">
          <mxGeometry x="160" y="760" width="40" height="40" as="geometry" />
        </mxCell>
        <mxCell id="kAC32boEKr8LLjx1eOd2-160" value="" style="rounded=0;whiteSpace=wrap;html=1;" vertex="1" parent="1">
          <mxGeometry x="200" y="760" width="40" height="40" as="geometry" />
        </mxCell>
        <mxCell id="kAC32boEKr8LLjx1eOd2-161" value="" style="rounded=0;whiteSpace=wrap;html=1;" vertex="1" parent="1">
          <mxGeometry x="240" y="760" width="40" height="40" as="geometry" />
        </mxCell>
        <mxCell id="kAC32boEKr8LLjx1eOd2-162" value="" style="rounded=0;whiteSpace=wrap;html=1;" vertex="1" parent="1">
          <mxGeometry x="280" y="760" width="40" height="40" as="geometry" />
        </mxCell>
        <mxCell id="kAC32boEKr8LLjx1eOd2-163" value="" style="endArrow=classic;html=1;rounded=0;entryX=1;entryY=0;entryDx=0;entryDy=0;" edge="1" parent="1" target="kAC32boEKr8LLjx1eOd2-158">
          <mxGeometry width="50" height="50" relative="1" as="geometry">
            <mxPoint x="440" y="720" as="sourcePoint" />
            <mxPoint x="440" y="720" as="targetPoint" />
          </mxGeometry>
        </mxCell>
        <mxCell id="kAC32boEKr8LLjx1eOd2-164" value="SubCell" style="text;html=1;strokeColor=none;fillColor=none;align=center;verticalAlign=middle;whiteSpace=wrap;rounded=0;" vertex="1" parent="1">
          <mxGeometry x="350" y="685" width="60" height="30" as="geometry" />
        </mxCell>
        <mxCell id="kAC32boEKr8LLjx1eOd2-165" value="" style="rounded=0;whiteSpace=wrap;html=1;" vertex="1" parent="1">
          <mxGeometry x="600" y="640" width="160" height="160" as="geometry" />
        </mxCell>
        <mxCell id="kAC32boEKr8LLjx1eOd2-166" value="" style="rounded=0;whiteSpace=wrap;html=1;" vertex="1" parent="1">
          <mxGeometry x="600" y="640" width="40" height="40" as="geometry" />
        </mxCell>
        <mxCell id="kAC32boEKr8LLjx1eOd2-167" value="" style="rounded=0;whiteSpace=wrap;html=1;" vertex="1" parent="1">
          <mxGeometry x="640" y="640" width="40" height="40" as="geometry" />
        </mxCell>
        <mxCell id="kAC32boEKr8LLjx1eOd2-168" value="" style="rounded=0;whiteSpace=wrap;html=1;" vertex="1" parent="1">
          <mxGeometry x="680" y="640" width="40" height="40" as="geometry" />
        </mxCell>
        <mxCell id="kAC32boEKr8LLjx1eOd2-169" value="" style="rounded=0;whiteSpace=wrap;html=1;" vertex="1" parent="1">
          <mxGeometry x="720" y="640" width="40" height="40" as="geometry" />
        </mxCell>
        <mxCell id="kAC32boEKr8LLjx1eOd2-170" value="" style="rounded=0;whiteSpace=wrap;html=1;" vertex="1" parent="1">
          <mxGeometry x="600" y="680" width="40" height="40" as="geometry" />
        </mxCell>
        <mxCell id="kAC32boEKr8LLjx1eOd2-171" value="" style="rounded=0;whiteSpace=wrap;html=1;" vertex="1" parent="1">
          <mxGeometry x="640" y="680" width="40" height="40" as="geometry" />
        </mxCell>
        <mxCell id="kAC32boEKr8LLjx1eOd2-172" value="" style="rounded=0;whiteSpace=wrap;html=1;" vertex="1" parent="1">
          <mxGeometry x="680" y="680" width="40" height="40" as="geometry" />
        </mxCell>
        <mxCell id="kAC32boEKr8LLjx1eOd2-173" value="" style="rounded=0;whiteSpace=wrap;html=1;" vertex="1" parent="1">
          <mxGeometry x="720" y="680" width="40" height="40" as="geometry" />
        </mxCell>
        <mxCell id="kAC32boEKr8LLjx1eOd2-174" value="" style="rounded=0;whiteSpace=wrap;html=1;" vertex="1" parent="1">
          <mxGeometry x="600" y="720" width="40" height="40" as="geometry" />
        </mxCell>
        <mxCell id="kAC32boEKr8LLjx1eOd2-175" value="" style="rounded=0;whiteSpace=wrap;html=1;" vertex="1" parent="1">
          <mxGeometry x="640" y="720" width="40" height="40" as="geometry" />
        </mxCell>
        <mxCell id="kAC32boEKr8LLjx1eOd2-176" value="" style="rounded=0;whiteSpace=wrap;html=1;" vertex="1" parent="1">
          <mxGeometry x="680" y="720" width="40" height="40" as="geometry" />
        </mxCell>
        <mxCell id="kAC32boEKr8LLjx1eOd2-177" value="" style="rounded=0;whiteSpace=wrap;html=1;" vertex="1" parent="1">
          <mxGeometry x="720" y="720" width="40" height="40" as="geometry" />
        </mxCell>
        <mxCell id="kAC32boEKr8LLjx1eOd2-178" value="" style="rounded=0;whiteSpace=wrap;html=1;" vertex="1" parent="1">
          <mxGeometry x="600" y="760" width="40" height="40" as="geometry" />
        </mxCell>
        <mxCell id="kAC32boEKr8LLjx1eOd2-179" value="" style="rounded=0;whiteSpace=wrap;html=1;" vertex="1" parent="1">
          <mxGeometry x="640" y="760" width="40" height="40" as="geometry" />
        </mxCell>
        <mxCell id="kAC32boEKr8LLjx1eOd2-180" value="" style="rounded=0;whiteSpace=wrap;html=1;" vertex="1" parent="1">
          <mxGeometry x="680" y="760" width="40" height="40" as="geometry" />
        </mxCell>
        <mxCell id="kAC32boEKr8LLjx1eOd2-181" value="" style="rounded=0;whiteSpace=wrap;html=1;" vertex="1" parent="1">
          <mxGeometry x="720" y="760" width="40" height="40" as="geometry" />
        </mxCell>
        <mxCell id="kAC32boEKr8LLjx1eOd2-182" value="" style="endArrow=classic;html=1;rounded=0;exitX=0;exitY=0;exitDx=0;exitDy=0;entryX=1;entryY=0;entryDx=0;entryDy=0;" edge="1" parent="1" source="kAC32boEKr8LLjx1eOd2-193" target="kAC32boEKr8LLjx1eOd2-177">
          <mxGeometry width="50" height="50" relative="1" as="geometry">
            <mxPoint x="820" y="800" as="sourcePoint" />
            <mxPoint x="780" y="760" as="targetPoint" />
          </mxGeometry>
        </mxCell>
        <mxCell id="kAC32boEKr8LLjx1eOd2-183" value="ShuffleCell" style="text;html=1;strokeColor=none;fillColor=none;align=center;verticalAlign=middle;whiteSpace=wrap;rounded=0;" vertex="1" parent="1">
          <mxGeometry x="520" y="685" width="60" height="30" as="geometry" />
        </mxCell>
        <mxCell id="kAC32boEKr8LLjx1eOd2-184" value="" style="rounded=0;whiteSpace=wrap;html=1;" vertex="1" parent="1">
          <mxGeometry x="880" y="640" width="160" height="160" as="geometry" />
        </mxCell>
        <mxCell id="kAC32boEKr8LLjx1eOd2-185" value="" style="rounded=0;whiteSpace=wrap;html=1;" vertex="1" parent="1">
          <mxGeometry x="880" y="640" width="40" height="40" as="geometry" />
        </mxCell>
        <mxCell id="kAC32boEKr8LLjx1eOd2-186" value="" style="rounded=0;whiteSpace=wrap;html=1;" vertex="1" parent="1">
          <mxGeometry x="920" y="640" width="40" height="40" as="geometry" />
        </mxCell>
        <mxCell id="kAC32boEKr8LLjx1eOd2-187" value="" style="rounded=0;whiteSpace=wrap;html=1;" vertex="1" parent="1">
          <mxGeometry x="960" y="640" width="40" height="40" as="geometry" />
        </mxCell>
        <mxCell id="kAC32boEKr8LLjx1eOd2-188" value="" style="rounded=0;whiteSpace=wrap;html=1;" vertex="1" parent="1">
          <mxGeometry x="1000" y="640" width="40" height="40" as="geometry" />
        </mxCell>
        <mxCell id="kAC32boEKr8LLjx1eOd2-189" value="" style="rounded=0;whiteSpace=wrap;html=1;" vertex="1" parent="1">
          <mxGeometry x="880" y="680" width="40" height="40" as="geometry" />
        </mxCell>
        <mxCell id="kAC32boEKr8LLjx1eOd2-190" value="" style="rounded=0;whiteSpace=wrap;html=1;" vertex="1" parent="1">
          <mxGeometry x="920" y="680" width="40" height="40" as="geometry" />
        </mxCell>
        <mxCell id="kAC32boEKr8LLjx1eOd2-191" value="" style="rounded=0;whiteSpace=wrap;html=1;" vertex="1" parent="1">
          <mxGeometry x="960" y="680" width="40" height="40" as="geometry" />
        </mxCell>
        <mxCell id="kAC32boEKr8LLjx1eOd2-192" value="" style="rounded=0;whiteSpace=wrap;html=1;" vertex="1" parent="1">
          <mxGeometry x="1000" y="680" width="40" height="40" as="geometry" />
        </mxCell>
        <mxCell id="kAC32boEKr8LLjx1eOd2-193" value="" style="rounded=0;whiteSpace=wrap;html=1;" vertex="1" parent="1">
          <mxGeometry x="880" y="720" width="40" height="40" as="geometry" />
        </mxCell>
        <mxCell id="kAC32boEKr8LLjx1eOd2-194" value="" style="rounded=0;whiteSpace=wrap;html=1;" vertex="1" parent="1">
          <mxGeometry x="920" y="720" width="40" height="40" as="geometry" />
        </mxCell>
        <mxCell id="kAC32boEKr8LLjx1eOd2-195" value="" style="rounded=0;whiteSpace=wrap;html=1;" vertex="1" parent="1">
          <mxGeometry x="960" y="720" width="40" height="40" as="geometry" />
        </mxCell>
        <mxCell id="kAC32boEKr8LLjx1eOd2-196" value="" style="rounded=0;whiteSpace=wrap;html=1;" vertex="1" parent="1">
          <mxGeometry x="1000" y="720" width="40" height="40" as="geometry" />
        </mxCell>
        <mxCell id="kAC32boEKr8LLjx1eOd2-197" value="" style="rounded=0;whiteSpace=wrap;html=1;" vertex="1" parent="1">
          <mxGeometry x="880" y="760" width="40" height="40" as="geometry" />
        </mxCell>
        <mxCell id="kAC32boEKr8LLjx1eOd2-198" value="" style="rounded=0;whiteSpace=wrap;html=1;" vertex="1" parent="1">
          <mxGeometry x="920" y="760" width="40" height="40" as="geometry" />
        </mxCell>
        <mxCell id="kAC32boEKr8LLjx1eOd2-199" value="" style="rounded=0;whiteSpace=wrap;html=1;" vertex="1" parent="1">
          <mxGeometry x="960" y="760" width="40" height="40" as="geometry" />
        </mxCell>
        <mxCell id="kAC32boEKr8LLjx1eOd2-200" value="" style="rounded=0;whiteSpace=wrap;html=1;" vertex="1" parent="1">
          <mxGeometry x="1000" y="760" width="40" height="40" as="geometry" />
        </mxCell>
        <mxCell id="kAC32boEKr8LLjx1eOd2-201" value="" style="endArrow=classic;html=1;rounded=0;entryX=1;entryY=0;entryDx=0;entryDy=0;" edge="1" parent="1" target="kAC32boEKr8LLjx1eOd2-196">
          <mxGeometry width="50" height="50" relative="1" as="geometry">
            <mxPoint x="1120" y="720" as="sourcePoint" />
            <mxPoint x="1160" y="720" as="targetPoint" />
          </mxGeometry>
        </mxCell>
        <mxCell id="kAC32boEKr8LLjx1eOd2-202" value="MixColumn" style="text;html=1;strokeColor=none;fillColor=none;align=center;verticalAlign=middle;whiteSpace=wrap;rounded=0;" vertex="1" parent="1">
          <mxGeometry x="800" y="685" width="60" height="30" as="geometry" />
        </mxCell>
        <mxCell id="kAC32boEKr8LLjx1eOd2-203" value="" style="ellipse;whiteSpace=wrap;html=1;" vertex="1" parent="1">
          <mxGeometry x="440" y="698.75" width="42.5" height="42.5" as="geometry" />
        </mxCell>
        <mxCell id="kAC32boEKr8LLjx1eOd2-204" value="" style="endArrow=none;html=1;rounded=0;entryX=0.5;entryY=0;entryDx=0;entryDy=0;exitX=0.5;exitY=1;exitDx=0;exitDy=0;" edge="1" parent="1" source="kAC32boEKr8LLjx1eOd2-203" target="kAC32boEKr8LLjx1eOd2-203">
          <mxGeometry width="50" height="50" relative="1" as="geometry">
            <mxPoint x="420" y="780" as="sourcePoint" />
            <mxPoint x="470" y="730" as="targetPoint" />
          </mxGeometry>
        </mxCell>
        <mxCell id="kAC32boEKr8LLjx1eOd2-205" value="" style="endArrow=none;html=1;rounded=0;entryX=1;entryY=0.5;entryDx=0;entryDy=0;exitX=0;exitY=0.5;exitDx=0;exitDy=0;" edge="1" parent="1" source="kAC32boEKr8LLjx1eOd2-203" target="kAC32boEKr8LLjx1eOd2-203">
          <mxGeometry width="50" height="50" relative="1" as="geometry">
            <mxPoint x="420" y="780" as="sourcePoint" />
            <mxPoint x="470" y="730" as="targetPoint" />
          </mxGeometry>
        </mxCell>
        <mxCell id="kAC32boEKr8LLjx1eOd2-209" value="" style="endArrow=classic;html=1;rounded=0;entryX=0.5;entryY=0;entryDx=0;entryDy=0;" edge="1" parent="1" target="kAC32boEKr8LLjx1eOd2-203">
          <mxGeometry width="50" height="50" relative="1" as="geometry">
            <mxPoint x="461" y="610" as="sourcePoint" />
            <mxPoint x="470" y="670" as="targetPoint" />
          </mxGeometry>
        </mxCell>
        <mxCell id="kAC32boEKr8LLjx1eOd2-213" value="KeyGuess" style="text;html=1;strokeColor=none;fillColor=none;align=center;verticalAlign=middle;whiteSpace=wrap;rounded=0;" vertex="1" parent="1">
          <mxGeometry x="431.25" y="570" width="60" height="30" as="geometry" />
        </mxCell>
        <mxCell id="kAC32boEKr8LLjx1eOd2-214" value="" style="endArrow=classic;html=1;rounded=0;exitX=0;exitY=0;exitDx=0;exitDy=0;entryX=1;entryY=0;entryDx=0;entryDy=0;" edge="1" parent="1">
          <mxGeometry width="50" height="50" relative="1" as="geometry">
            <mxPoint x="602.5" y="719.7" as="sourcePoint" />
            <mxPoint x="482.5" y="719.7" as="targetPoint" />
          </mxGeometry>
        </mxCell>
        <mxCell id="kAC32boEKr8LLjx1eOd2-215" value="round 4 cipher" style="text;html=1;strokeColor=none;fillColor=none;align=center;verticalAlign=middle;whiteSpace=wrap;rounded=0;" vertex="1" parent="1">
          <mxGeometry x="1120" y="705" width="60" height="30" as="geometry" />
        </mxCell>
      </root>
    </mxGraphModel>
  </diagram>
</mxfile>
